<svg width="120" height="120" viewBox="0 0 120 120" fill="none" xmlns="http://www.w3.org/2000/svg">
<path d="M61.1586 77.0547L78.008 68.1277V60.1403V49.3338L61.1586 58.2609V77.0547Z" fill="black"/>
<path d="M61.1586 98.1979L78.008 89.7407V81.7532V70.9468L61.1586 79.8738V98.1979Z" fill="white"/>
<path d="M61.1586 120L78.008 111.354V102.616V92.5597L61.1586 100.736V120Z" fill="white"/>
<path d="M80.807 66.7179L99.0698 56.8513V49.3338V38.0575L80.807 47.6453V66.7179Z" fill="white"/>
<path d="M80.807 87.8612L99.0698 78.4643V70.9468V59.6704L80.807 69.2582V87.8612Z" fill="white"/>
<path d="M80.807 109.474L99.0698 100.077V92.5597V80.8136L80.807 90.6803V109.474Z" fill="white"/>
<path d="M101.571 55.9118L120 46.5148V38.9973V26.7812L101.571 36.648V55.9118Z" fill="white"/>
<path d="M101.571 76.5849L120 66.7182V60.6101V48.864L101.571 58.2609V76.5849Z" fill="white"/>
<path d="M101.571 98.1767C108.562 94.5069 113.009 92.4495 120 88.7798V85.4909V81.4732C120 81.4732 120 70.9258 120 69.9859C120 69.0461 101.571 78.913 101.571 78.913V98.1767Z" fill="black"/>
<path d="M120 81.4732H118.75V85.4909V88.0233C115.566 89.6865 112.9 91.0214 110.226 92.3605L110.223 92.3617C107.878 93.536 105.526 94.7137 102.821 96.1151V79.663C102.862 79.6411 102.905 79.6182 102.95 79.5945C103.452 79.3272 104.171 78.9461 105.033 78.4918C106.758 77.5829 109.056 76.3817 111.353 75.2106C113.654 74.0375 115.939 72.902 117.642 72.1204C118.055 71.931 118.426 71.7658 118.75 71.6274V71.65V71.674V71.698V71.7222V71.7465V71.7709V71.7955V71.8202V71.8449V71.8698V71.8948V71.92V71.9452V71.9706V71.996V72.0216V72.0473V72.0731V72.099V72.125V72.1511V72.1773V72.2036V72.2301V72.2566V72.2832V72.31V72.3368V72.3637V72.3908V72.4179V72.4451V72.4725V72.4999V72.5274V72.555V72.5827V72.6105V72.6383V72.6663V72.6944V72.7225V72.7507V72.779V72.8074V72.8359V72.8645V72.8931V72.9219V72.9507V72.9795V73.0085V73.0376V73.0667V73.0959V73.1251V73.1545V73.1839V73.2134V73.243V73.2726V73.3023V73.3321V73.3619V73.3918V73.4218V73.4518V73.4819V73.5121V73.5423V73.5726V73.6029V73.6333V73.6638V73.6943V73.7249V73.7555V73.7862V73.817V73.8478V73.8786V73.9095V73.9405V73.9715V74.0025V74.0336V74.0647V74.0959V74.1272V74.1584V74.1898V74.2211V74.2525V74.284V74.3155V74.347V74.3786V74.4102V74.4418V74.4735V74.5052V74.5369V74.5687V74.6005V74.6323V74.6642V74.6961V74.728V74.76V74.7919V74.8239V74.8559V74.888V74.9201V74.9522V74.9843V75.0164V75.0486V75.0807V75.1129V75.1451V75.1773V75.2096V75.2418V75.2741V75.3063V75.3386V75.3709V75.4032V75.4355V75.4678V75.5002V75.5325V75.5648V75.5972V75.6295V75.6618V75.6942V75.7265V75.7589V75.7912V75.8235V75.8559V75.8882V75.9205V75.9528V75.9851V76.0174V76.0497V76.082V76.1143V76.1465V76.1788V76.211V76.2433V76.2755V76.3076V76.3398V76.372V76.4041V76.4362V76.4683V76.5004V76.5324V76.5645V76.5965V76.6284V76.6604V76.6923V76.7242V76.7561V76.7879V76.8197V76.8515V76.8832V76.915V76.9466V76.9783V77.0099V77.0414V77.073V77.1045V77.1359V77.1673V77.1987V77.23V77.2613V77.2926V77.3237V77.3549V77.386V77.4171V77.4481V77.479V77.5099V77.5408V77.5716V77.6023V77.633V77.6637V77.6943V77.7248V77.7553V77.7857V77.816V77.8463V77.8765V77.9067V77.9368V77.9669V77.9968V78.0268V78.0566V78.0864V78.1161V78.1457V78.1753V78.2048V78.2342V78.2636V78.2929V78.3221V78.3512V78.3802V78.4092V78.4381V78.4669V78.4957V78.5243V78.5529V78.5814V78.6098V78.6381V78.6664V78.6945V78.7226V78.7506V78.7785V78.8062V78.834V78.8616V78.8891V78.9165V78.9438V78.9711V78.9982V79.0253V79.0522V79.0791V79.1058V79.1325V79.159V79.1854V79.2118V79.238V79.2641V79.2902V79.3161V79.3419V79.3676V79.3932V79.4187V79.444V79.4693V79.4944V79.5194V79.5443V79.5691V79.5938V79.6184V79.6428V79.6671V79.6913V79.7154V79.7394V79.7632V79.7869V79.8105V79.834V79.8573V79.8805V79.9036V79.9265V79.9493V79.972V79.9945V80.017V80.0392V80.0614V80.0834V80.1053V80.127V80.1486V80.1701V80.1914V80.2125V80.2336V80.2545V80.2752V80.2958V80.3163V80.3366V80.3567V80.3767V80.3966V80.4163V80.4359V80.4553V80.4745V80.4936V80.5126V80.5314V80.55V80.5685V80.5868V80.605V80.623V80.6408V80.6585V80.676V80.6933V80.7105V80.7275V80.7444V80.7611V80.7776V80.7939V80.8101V80.8261V80.8419V80.8576V80.8731V80.8884V80.9035V80.9185V80.9333V80.9479V80.9623V80.9765V80.9906V81.0045V81.0182V81.0317V81.045V81.0582V81.0711V81.0839V81.0965V81.1088V81.1211V81.1331V81.1449V81.1565V81.1679V81.1792V81.1902V81.2011V81.2117V81.2222V81.2324V81.2425V81.2523V81.262V81.2714V81.2807V81.2897V81.2985V81.3072V81.3156V81.3238V81.3318V81.3396V81.3472V81.3545V81.3617V81.3686V81.3754V81.3819V81.3882V81.3943V81.4001V81.4058V81.4112V81.4164V81.4214V81.4261V81.4307V81.435V81.4391V81.4429V81.4466V81.45V81.4531V81.4561V81.4588V81.4613V81.4635V81.4656V81.4674V81.4689V81.4702V81.4713V81.4721V81.4727V81.4731C118.75 81.4732 118.75 81.4732 120 81.4732ZM76.758 67.3753L62.4086 74.9779V59.0132L76.758 51.4107V60.1403V67.3753ZM76.758 88.9695L62.4086 96.1718V80.6262L76.758 73.0236V81.7532V88.9695ZM76.758 110.59L62.4086 117.954V101.519L76.758 94.5557V102.616V110.59ZM97.8198 56.1059L82.057 64.6219V48.4008L97.8198 40.1255V49.3338V56.1059ZM97.8198 77.7017L82.057 85.8123V70.0138L97.8198 61.7384V70.9468V77.7017ZM97.8198 99.3146L82.057 107.425V91.4257L97.8198 82.9097V92.5597V99.3146ZM118.75 45.7491L102.821 53.8713V37.3966L118.75 28.8683V38.9973V45.7491ZM118.75 65.9695L102.821 74.4978V59.0266L118.75 50.9044V60.6101V65.9695Z" stroke="black" stroke-width="2.5"/>
<path d="M59.0426 77.5247L41.6666 68.1278L41.6015 59.9237L41.6666 49.5204L59.0426 58.261L59.0426 77.5247Z" fill="white"/>
<path d="M59.0426 98.198L41.4343 88.801L41.4343 82.0061L41.5197 70.73L59.0426 80.3438L59.0426 98.198Z" fill="white"/>
<path d="M59.2192 119.798L41.221 110.184L41.2779 102.666L41.14 91.6201L59.2192 101.004L59.2192 119.798Z" fill="white"/>
<path d="M39.9467 67.2472L21.0698 56.5679L21.1232 49.5204L21.2086 38.2443L40.4479 48.4182L39.9467 67.2472Z" fill="white"/>
<path d="M39.2865 87.5044L20.4095 77.0537L20.4629 70.0062L20.5483 58.7301L39.4501 69.4093L39.2865 87.5044Z" fill="black"/>
<path d="M39.1244 109.231L20.2439 99.2503L20.3008 91.7329L20.4147 80.511L39.1244 90.3778L39.1244 109.231Z" fill="white"/>
<path d="M19.1313 55.4192L0.699153 45.8L0.613768 38.391L0.699162 27.1149L19.6324 36.819L19.1313 55.4192Z" fill="black"/>
<path d="M18.306 76.282L0.471476 67.2472L0.521287 60.6695L0.613794 48.4537L18.4448 57.9584L18.306 76.282Z" fill="white"/>
<path d="M18.1601 98.3043C11.1967 94.5925 7.29258 92.5114 0.32916 88.7996L0.389645 80.8124L0.471477 70.0062L18.4697 79.4041L18.1601 98.3043Z" fill="white"/>
<path d="M59.2192 119.798L41.221 110.184L41.2779 102.666L41.14 91.6201L59.2192 101.004L59.2192 119.798Z" fill="black"/>
<path d="M39.1777 49.1614L22.443 40.312L22.3732 49.5279L22.3254 55.8411L38.7526 65.1345L39.1777 49.1614ZM57.7925 59.0323L42.904 51.5429L42.8516 59.9208L42.9107 67.3786L57.7925 75.4267L57.7925 59.0323ZM42.5278 102.649L42.528 102.661L42.5279 102.674L42.4767 109.436L57.9692 117.712L57.9692 101.765L42.416 93.6917L42.5278 102.649ZM42.6843 88.0504L57.7925 96.1131L57.7925 81.0847L42.7538 72.8338L42.6843 82.0089L42.6843 82.0136L42.6843 88.0504ZM21.6651 76.3191L38.0555 85.3932L38.1935 70.136L21.7822 60.8639L21.7129 70.0137L21.6651 76.3191ZM21.4996 98.4993L37.8744 107.156L37.8744 91.1326L21.6438 82.5732L21.5508 91.7405L21.5508 91.7437L21.4996 98.4993ZM1.94048 45.0369L17.9357 53.3844L18.3617 37.5732L1.93376 29.1532L1.86384 38.3867L1.94048 45.0369ZM1.72731 66.4813L17.0713 74.2544L17.1891 58.7064L1.84811 50.5291L1.77126 60.677L1.72731 66.4813ZM1.58486 88.0516L16.9438 96.2385L17.2072 80.1559L1.70594 72.0618L1.63962 80.8199L1.58486 88.0516Z" stroke="black" stroke-width="2.5"/>
<path d="M42.203 47.1793L60.1055 37.9701L77.4816 47.1793L60.6321 56.5762L42.203 47.1793Z" fill="white"/>
<path d="M62.2117 37.0304L79.5878 27.6337L98.0168 36.0909L79.5878 46.4276L62.2117 37.0304Z" fill="white"/>
<path d="M81.1673 26.7481L99.5965 17.3523L118.552 25.2844L108.548 30.54L99.5965 35.2174L81.1673 26.7481Z" fill="white"/>
<path d="M21.6677 36.0909L39.0437 27.6337L58.5259 37.5005L40.6234 46.4276L21.6677 36.0909Z" fill="white"/>
<path d="M2.18549 25.8096L19.5615 17.7667L37.6763 26.813L20.088 34.6813L2.18549 25.8096Z" fill="white"/>
<path d="M21.6677 16.8943L40.0968 8.43702L48.5215 12.1958L58.5259 17.3523L40.0968 26.2912L21.6677 16.8943Z" fill="white"/>
<path d="M61.1588 17.0843L78.5346 7.9874L97.4902 16.9145L79.5878 26.0874L61.1588 17.0843Z" fill="white"/>
<path d="M42.203 8.15728L60.1055 0L76.955 7.50246L59.5789 16.4446L42.203 8.15728Z" fill="white"/>
<path d="M41.6765 26.813L60.1056 18.0739L77.4816 26.813L60.1056 36.21L41.6765 26.813Z" fill="white"/>
<path d="M41.6765 26.813L60.1056 18.0739L77.4816 26.813L60.1056 36.21L41.6765 26.813Z" fill="black"/>
<path d="M55.7422 37.4918L40.6492 45.0179L24.3943 36.154L39.0327 29.0292L55.7422 37.4918ZM60.0968 39.3803L74.8651 47.2073L60.6058 55.1597L44.9452 47.1744L60.0968 39.3803ZM40.104 9.80903L47.9801 13.323L55.7317 17.3183L40.1107 24.8952L24.5356 16.9535L40.104 9.80903ZM79.5768 45.0005L64.8394 37.0305L79.6335 29.03L95.2628 36.2024L79.5768 45.0005ZM99.6482 18.729L115.62 25.4126L107.969 29.4322L107.966 29.4335L99.5611 33.8255L84.0338 26.6897L99.6482 18.729ZM60.1114 1.37095L74.0649 7.58394L59.5578 15.0497L45.1609 8.18315L60.1114 1.37095ZM60.0885 34.7981L44.5081 26.8537L60.0895 19.4649L74.7795 26.8532L60.0885 34.7981ZM78.564 9.38294L94.6567 16.9618L79.5744 24.6897L63.9275 17.0457L78.564 9.38294ZM19.5409 19.1537L34.7541 26.7509L20.1153 33.2997L5.07822 25.848L19.5409 19.1537Z" stroke="black" stroke-width="2.5"/>
</svg>
